# xmcd
#
# Track frame offsets: 
#        150
#        3501
#        15336
#        29753
#
# Disc length: 524 seconds
#
# Revision: 1
# Processed by: cddbd v1.5.2PL0 Copyright (c) Steve Scherf et al.
# Submitted via: ExactAudioCopy v1.3
#
DISCID=24020a04
DTITLE=錦鏽 - 不確定 - 創作全記錄
DYEAR=1900
DGENRE=Country
TTITLE0=美夢成真篇
TTITLE1=回憶篇
TTITLE2=不確定 自彈自唱苦練版
TTITLE3=感謝篇
EXTD=
EXTT0=
EXTT1=
EXTT2=
EXTT3=
PLAYORDER=
